<svg xmlns="http://www.w3.org/2000/svg" width="24" height="24" viewBox="0 0 24 24">
    <g fill="none" fill-rule="evenodd">
        <path d="M0 0h24v24H0z"/>
        <path fill="#EAEAEA" fill-rule="nonzero" d="M7.08 2.51c-2.764.413-4.742 1.523-4.742 2.828 0 .059.004.117.012.175h-.012v9.983c0 1.287 1.978 2.384 4.741 2.792V2.51z"/>
        <path stroke="#666" stroke-linecap="round" stroke-linejoin="round" stroke-width=".8" d="M9.466 2.338c3.935 0 7.126 1.342 7.126 3 0 1.657-3.19 3.003-7.126 3.003-3.938 0-7.128-1.346-7.128-3.003 0-1.658 3.19-3 7.128-3z"/>
        <path stroke="#666" stroke-linecap="round" stroke-linejoin="round" stroke-width=".8" d="M9.466 2.338c3.935 0 7.126 1.342 7.126 3 0 1.657-3.19 3.003-7.126 3.003-3.938 0-7.128-1.346-7.128-3.003 0-1.658 3.19-3 7.128-3z"/>
        <path stroke="#666" stroke-linecap="round" stroke-linejoin="round" stroke-width=".8" d="M9.466 18.459c-3.938 0-7.128-1.346-7.128-3.003V5.338m14.254 0v5.105"/>
        <path stroke="#666" stroke-linecap="round" stroke-linejoin="round" stroke-width=".8" d="M9.466 14.853c-3.938 0-7.128-1.346-7.128-3.002m8.192-.148c-.347.022-.702.034-1.064.034-3.938 0-7.128-1.347-7.128-3.003m14.254 0c0 .639-.475 1.231-1.284 1.72M22 13.18v5.694c0 1.436-2.766 2.602-6.178 2.602-3.414 0-6.18-1.166-6.18-2.602V13.18"/>
        <path stroke="#666" stroke-linecap="round" stroke-linejoin="round" stroke-width=".8" d="M22 15.748c0 1.436-2.766 2.603-6.178 2.603-3.414 0-6.18-1.167-6.18-2.603M15.822 10.443c3.412 0 6.178 1.164 6.178 2.602 0 1.436-2.766 2.603-6.178 2.603-3.414 0-6.18-1.167-6.18-2.603 0-1.438 2.766-2.602 6.18-2.602z"/>
    </g>
</svg>
